<svg width="370" height="370" viewBox="0 0 370 370" fill="none" xmlns="http://www.w3.org/2000/svg">
<path d="M258.455 3H114.104L103 50.8506L114.104 152.116L179.617 368H193.497L221.256 305.127L274 96.4756L258.455 3Z" fill="white" stroke="white"/>
<path fill-rule="evenodd" clip-rule="evenodd" d="M258.922 102.124C258.973 102.313 259 102.509 259 102.705V133.185C259 133.576 258.896 133.96 258.698 134.299C258.501 134.637 258.217 134.918 257.875 135.113L232.095 149.841V179.035C232.095 179.83 231.67 180.563 230.975 180.963L177.163 211.704C177.04 211.773 176.906 211.818 176.771 211.865C176.721 211.882 176.673 211.912 176.62 211.926C176.244 212.025 175.849 212.025 175.472 211.926C175.411 211.91 175.355 211.876 175.296 211.854C175.173 211.81 175.044 211.771 174.926 211.704L121.125 180.963C120.784 180.768 120.5 180.487 120.302 180.149C120.104 179.81 120 179.426 120 179.035V87.5953C120 87.3953 120.028 87.2008 120.078 87.0119C120.095 86.9481 120.134 86.8897 120.157 86.8258C120.199 86.7091 120.238 86.5897 120.3 86.4814C120.342 86.4091 120.403 86.3508 120.453 86.2841C120.518 86.1952 120.577 86.1036 120.652 86.0258C120.717 85.9619 120.801 85.9146 120.873 85.8591C120.955 85.7924 121.027 85.7202 121.12 85.6674H121.123L148.025 70.2969C148.365 70.1024 148.751 70 149.144 70C149.537 70 149.923 70.1024 150.264 70.2969L177.166 85.6674H177.172C177.261 85.723 177.337 85.7924 177.418 85.8563C177.491 85.9119 177.572 85.9619 177.636 86.023C177.715 86.1036 177.771 86.1952 177.838 86.2841C177.885 86.3508 177.95 86.4091 177.989 86.4814C178.053 86.5925 178.09 86.7091 178.135 86.8258C178.157 86.8897 178.196 86.9481 178.213 87.0147C178.264 87.204 178.291 87.3992 178.291 87.5953V144.708L200.709 131.898V102.702C200.709 102.507 200.737 102.31 200.787 102.124C200.807 102.057 200.843 101.999 200.865 101.935C200.91 101.819 200.949 101.699 201.011 101.591C201.053 101.519 201.115 101.46 201.162 101.394C201.229 101.305 201.285 101.213 201.364 101.135C201.428 101.071 201.509 101.024 201.582 100.968C201.666 100.902 201.739 100.83 201.828 100.777H201.831L228.736 85.4063C229.077 85.2115 229.463 85.109 229.856 85.109C230.249 85.109 230.635 85.2115 230.975 85.4063L257.877 100.777C257.973 100.832 258.045 100.902 258.129 100.966C258.199 101.021 258.281 101.071 258.345 101.132C258.423 101.213 258.479 101.305 258.547 101.394C258.597 101.46 258.658 101.519 258.698 101.591C258.762 101.699 258.798 101.819 258.843 101.935C258.868 101.999 258.905 102.057 258.922 102.124V102.124ZM254.515 131.898V106.552L245.101 111.93L232.095 119.361V144.708L254.518 131.898H254.515ZM227.613 177.749V152.386L214.82 159.636L178.289 180.327V205.929L227.613 177.749ZM124.485 91.4428V177.749L173.804 205.926V180.33L148.039 165.859L148.03 165.854L148.019 165.848C147.932 165.798 147.859 165.726 147.778 165.665C147.708 165.609 147.627 165.565 147.565 165.504L147.56 165.495C147.487 165.426 147.437 165.34 147.375 165.262C147.319 165.187 147.252 165.123 147.207 165.045L147.204 165.037C147.154 164.954 147.123 164.854 147.087 164.759C147.05 164.676 147.003 164.598 146.98 164.509V164.506C146.952 164.401 146.947 164.29 146.936 164.181C146.924 164.098 146.902 164.015 146.902 163.931V163.926V104.252L133.899 96.8182L124.485 91.4456V91.4428ZM149.147 74.7916L126.732 87.5953L149.141 100.399L171.553 87.5925L149.141 74.7916H149.147ZM160.804 154.697L173.807 147.269V91.4428L164.392 96.821L151.387 104.252V160.078L160.804 154.697ZM229.856 89.901L207.444 102.705L229.856 115.508L252.265 102.702L229.856 89.901V89.901ZM227.613 119.361L214.608 111.93L205.193 106.552V131.898L218.196 139.327L227.613 144.708V119.361ZM176.043 176.479L208.916 157.856L225.349 148.55L202.954 135.754L177.169 150.486L153.668 163.912L176.043 176.479V176.479Z" fill="#FF2D20"/>
<path d="M71.887 40.9086L31 81.7956L44.2931 95.0887L57.5862 108.382L46.5444 119.424C40.4767 125.491 35.5025 130.53 35.5025 130.616C35.5025 130.68 40.4338 139.042 46.4586 149.162C52.5048 159.282 58.4653 169.294 59.7303 171.417C60.9952 173.539 69.2498 187.39 78.0619 202.184C86.8739 216.978 105.013 247.423 118.37 269.829C145.149 314.768 144.87 314.296 158.099 336.509C163.224 345.106 169.784 356.105 172.657 360.951C177.782 369.527 178.468 370.642 178.232 369.741C178.168 369.506 177.267 365.796 176.259 361.487C175.252 357.177 173.708 350.659 172.829 347.014C171.95 343.348 169.398 332.606 167.147 323.108C164.896 313.61 162.666 304.262 162.194 302.311C161.744 300.36 158.657 287.388 155.355 273.474C152.053 259.559 149.201 247.595 149.03 246.887C148.708 245.558 140.111 209.345 137.645 198.968C134.793 186.983 127.654 156.923 126.732 153.085C118.263 117.73 116.762 111.04 115.068 101.521C111.423 81.0881 109.858 62.3705 110.03 40.9515C110.137 27.5512 110.866 16.445 112.452 3.43062C112.688 1.60817 112.838 0.0858995 112.817 0.064459C112.795 0.0430185 94.3781 18.4175 71.887 40.9086Z" fill="black"/>
<path d="M121.5 1.86528C118.884 13.1644 118.348 29.8237 120.214 43.0525C120.621 46.0756 121.179 48.9915 121.715 51.0926L121.95 52.1003H125.424C132.349 52.1003 142.383 51.2642 147.422 50.2565C152.953 49.163 161.079 45.3895 170.449 39.6005L173.215 37.8853L175.059 38.3355C178.725 39.236 180.869 39.5148 184.514 39.5148C188.159 39.5148 190.303 39.236 193.969 38.3355L195.813 37.8853L198.579 39.6005C206.683 44.6176 214.338 48.3268 219.483 49.7204C224.179 51.0069 235.242 52.1003 243.604 52.1003H247.077L247.313 51.0926C250.315 39.1932 250.765 20.0039 248.385 6.26058C248.149 4.93127 247.763 2.98018 247.527 1.9296L247.077 -4.7002e-05H244.804C236.164 -4.7002e-05 223.686 1.22206 219.333 2.46561C214.059 3.98788 206.34 7.76141 198.45 12.6498L195.77 14.3222L193.883 13.8291C188.03 12.2639 180.998 12.2639 175.166 13.8291L173.279 14.3222L170.041 12.3497C161.701 7.20396 154.047 3.55907 148.815 2.2512C144.227 1.09342 132.22 -4.7002e-05 124.137 -4.7002e-05H121.95L121.5 1.86528Z" fill="black"/>
<path d="M256.211 0.643384C256.404 1.82261 257.154 8.36196 257.519 11.8996C259.105 27.8299 259.47 47.791 258.484 63.464C257.497 79.0941 255.654 93.4378 252.673 108.382C251.516 114.128 250.894 116.894 248.407 127.357C247.249 132.245 245.126 141.121 243.711 147.082C242.296 153.042 239.273 165.821 236.957 175.491C234.663 185.16 231.662 197.789 230.289 203.578C226.044 221.459 220.32 245.537 219.998 246.887C219.827 247.595 216.975 259.559 213.673 273.474C210.371 287.388 207.348 300.167 206.919 301.882C206.083 305.398 199.437 333.378 197.271 342.491C196.499 345.771 195.577 349.63 195.234 351.067C194.891 352.482 193.798 357.177 192.769 361.487C191.761 365.796 190.86 369.506 190.796 369.741C190.56 370.642 191.246 369.527 196.371 360.951C199.244 356.105 205.826 345.063 210.993 336.401C221.456 318.842 266.481 243.285 290.644 202.72C299.285 188.205 307.968 173.647 309.941 170.345C312.878 165.414 320.425 152.742 331.896 133.51C332.796 131.988 333.525 130.68 333.525 130.616C333.525 130.53 328.551 125.491 322.484 119.424L311.442 108.382L324.735 95.0888L338.028 81.7956L297.055 40.8443C260.842 4.63134 256.104 -0.0212708 256.211 0.643384Z" fill="black"/>
<path d="M182.113 73.6055C179.969 74.4203 178.554 75.6638 177.482 77.6792C176.967 78.6869 176.903 79.0085 176.903 80.9382C176.903 82.8035 176.967 83.2323 177.482 84.3043C178.211 85.8695 179.69 87.3489 181.255 88.0778C182.306 88.571 182.756 88.6567 184.514 88.6567C186.272 88.6567 186.723 88.571 187.773 88.0778C189.338 87.3489 190.818 85.8695 191.547 84.3043C192.061 83.2323 192.126 82.8035 192.126 80.9382C192.126 79.0085 192.061 78.6869 191.525 77.6578C190.668 76.0497 189.66 74.9991 188.116 74.163C186.916 73.5412 186.551 73.4554 184.836 73.3911C183.571 73.3482 182.627 73.4126 182.113 73.6055Z" fill="black"/>
<path d="M182.735 142.579C180.569 143.137 178.318 145.002 177.375 147.039C176.989 147.854 176.903 148.432 176.903 150.191C176.903 152.142 176.967 152.442 177.525 153.578C179.111 156.687 182.585 158.445 185.844 157.802C186.572 157.673 187.559 157.352 188.03 157.116C189.317 156.451 190.796 154.95 191.504 153.578C192.061 152.442 192.126 152.142 192.126 150.191C192.126 147.596 191.74 146.61 190.089 144.852C188.266 142.922 185.2 141.957 182.735 142.579Z" fill="black"/>
<path d="M181.706 212.111C179.626 212.99 178.532 214.019 177.417 216.12C176.989 216.935 176.924 217.407 176.903 219.229C176.903 221.116 176.967 221.523 177.482 222.595C178.211 224.16 179.69 225.64 181.255 226.369C182.306 226.862 182.756 226.948 184.514 226.948C186.272 226.948 186.723 226.862 187.773 226.369C189.338 225.64 190.818 224.16 191.547 222.595C192.061 221.523 192.126 221.116 192.126 219.229C192.104 217.342 192.04 216.956 191.547 216.013C190.646 214.298 189.553 213.204 187.988 212.433C186.765 211.832 186.294 211.725 184.729 211.661C183.206 211.618 182.713 211.682 181.706 212.111Z" fill="black"/>
</svg>
